Coordinates
version=1
nRows=5
nColumns=40
inDegrees=yes

Units are S.I. units (second, meters, Newtons, ...)
Angles are in degrees.

endheader
time	pelvis_tilt	pelvis_list	pelvis_rotation	pelvis_tx	pelvis_ty	pelvis_tz	hip_flexion_r	hip_adduction_r	hip_rotation_r	knee_angle_r	knee_angle_r_beta	ankle_angle_r	subtalar_angle_r	mtp_angle_r	hip_flexion_l	hip_adduction_l	hip_rotation_l	knee_angle_l	knee_angle_l_beta	ankle_angle_l	subtalar_angle_l	mtp_angle_l	lumbar_extension	lumbar_bending	lumbar_rotation	arm_flex_r	arm_add_r	arm_rot_r	elbow_flex_r	pro_sup_r	wrist_flex_r	wrist_dev_r	arm_flex_l	arm_add_l	arm_rot_l	elbow_flex_l	pro_sup_l	wrist_flex_l	wrist_dev_l
     55.92000000	     -4.37714048	     -4.35253947	      5.26449776	      1.10567362	      0.92309380	      0.42060697	      9.32144349	     -3.13535173	    -11.05591373	     37.09213224	     37.09213224	     12.62612596	     -9.52890336	     -9.84730634	     25.45579652	     -3.71467033	      0.15254176	     26.03302230	     26.03302230	      8.35217732	    -12.27865177	      1.53215183	    -10.15632742	      2.29952686	      2.87076415	     15.65007099	    -13.08566638	     11.68559158	     59.78147247	     44.76158596	      0.00000000	      0.00000000	      3.94077422	    -10.67861895	    -11.73752010	     36.77281157	     46.25614172	      0.00000000	      0.00000000
     55.93428571	     -4.27010078	     -4.27308371	      4.91589584	      1.10553987	      0.92362087	      0.41765745	     11.05619633	     -3.77960040	    -10.50181850	     40.83973966	     40.83973966	     11.03668966	    -10.84318057	    -10.31435231	     24.88713593	     -3.64179378	     -0.34536816	     26.11038047	     26.11038047	      8.81106386	    -12.09642292	      1.24006895	    -10.34754777	      2.21977211	      2.85670803	     14.70403096	    -13.29565354	     11.79348124	     58.40695214	     44.80553078	      0.00000000	      0.00000000	      4.42681144	    -10.86902811	    -11.65743499	     37.46547595	     46.25730991	      0.00000000	      0.00000000
     55.94857143	     -4.25773090	     -4.22391140	      4.48417524	      1.10532925	      0.92394218	      0.41511260	     12.97561769	     -4.31037758	     -9.84918695	     44.54474991	     44.54474991	      9.33541198	    -12.25091207	    -10.54713474	     24.38175181	     -3.64684962	     -0.91162767	     26.12397917	     26.12397917	      9.32406230	    -11.81049642	      0.88785347	    -10.42553651	      2.06266177	      2.86345101	     13.72352988	    -13.48623949	     11.83165560	     56.70441595	     44.86391406	      0.00000000	      0.00000000	      4.81927886	    -11.10200644	    -11.54771742	     38.24666603	     46.25489869	      0.00000000	      0.00000000
     55.96285714	     -4.16349429	     -4.38397827	      4.05690826	      1.10510552	      0.92440891	      0.41292948	     14.77567014	     -4.40001333	     -9.06458628	     47.94010126	     47.94010126	      7.49222602	    -14.09572347	    -10.35814698	     23.89767639	     -4.01052896	     -1.77839143	     26.29726335	     26.29726335	      9.87113089	    -10.85622517	      0.15221396	    -10.50489539	      2.16026547	      2.54005869	     13.82607326	    -12.86556399	     11.25452030	     51.71240949	     45.08511825	      0.00000000	      0.00000000	      4.44949747	    -11.64628763	    -10.71727275	     40.37912764	     46.17826246	      0.00000000	      0.00000000
     55.97714286	     -4.07490052	     -4.21157552	      3.68110202	      1.10479569	      0.92492973	      0.41049629	     16.56246969	     -5.07938112	     -8.71287038	     51.24426144	     51.24426144	      6.02444198	    -14.78752051	    -10.05602501	     23.23034060	     -3.85539599	     -2.33098434	     26.15034056	     26.15034056	     10.23456682	    -10.62780593	     -0.02785017	    -10.68717799	      1.94531305	      2.18459886	     12.83831565	    -13.07261526	     11.20860276	     50.60865873	     45.12424697	      0.00000000	      0.00000000	      4.75675518	    -12.05810499	    -10.69698074	     40.82889986	     46.18595438	      0.00000000	      0.00000000
